<svg xmlns="http://www.w3.org/2000/svg" viewBox="0 0 32 32">
  <!-- Icon from Fluent Emoji Flat by Microsoft Corporation - https://github.com/microsoft/fluentui-emoji/blob/main/LICENSE -->
  <g fill="none">
    <path fill="#4ade80" d="m2.16 19.3l3.37-6.41c.29-.55.86-.89 1.48-.89H14l1 9l-13-1c0-.27.05-.45.16-.7" />
    <path fill="#16a34a" d="M2.31 19H8.9c.61 0 1.1-.49 1.1-1.1v-3.79c0-.61-.49-1.1-1.1-1.1H5.48z" />
    <path fill="#16a34a" d="M2 20v5.23c0 .98.8 1.78 1.78 1.78H28.2c.99 0 1.8-.81 1.8-1.8V20l-7.5-3l-8.5 3z" />
    <path fill="#14532d" d="M12 26.5a3.5 3.5 0 1 1-7 0a3.5 3.5 0 0 1 7 0m15 0a3.5 3.5 0 1 1-7 0a3.5 3.5 0 0 1 7 0" />
    <path fill="#15803d" d="M10 26.5a1.5 1.5 0 1 1-3 0a1.5 1.5 0 0 1 3 0m15 0a1.5 1.5 0 1 1-3 0a1.5 1.5 0 0 1 3 0" />
    <path fill="#15803d" d="M30 22h-.5c-.85 0-1.54.71-1.5 1.57c.04.81.74 1.43 1.55 1.43H30z" />
    <path fill="#22c55e"
      d="M17 7h10c1.66 0 3 1.34 3 3v10H14V10c0-1.66 1.34-3 3-3M2 25h.91c.6 0 1.09-.49 1.09-1.09v-1.82c0-.6-.49-1.09-1.09-1.09H2z" />
  </g>
</svg>